Coordinates
version=1
nRows=41
nColumns=38
inDegrees=no

Units are S.I. units (second, meters, Newtons, ...)
If the header above contains a line with 'inDegrees', this indicates whether rotational values are in degrees (yes) or radians (no).

endheader
time	pelvis_tilt	pelvis_list	pelvis_rotation	pelvis_tx	pelvis_ty	pelvis_tz	hip_flexion_r	hip_adduction_r	hip_rotation_r	knee_angle_r	ankle_angle_r	subtalar_angle_r	mtp_angle_r	hip_flexion_l	hip_adduction_l	hip_rotation_l	knee_angle_l	ankle_angle_l	subtalar_angle_l	mtp_angle_l	lumbar_extension	lumbar_bending	lumbar_rotation	arm_flex_r	arm_add_r	arm_rot_r	elbow_flex_r	pro_sup_r	wrist_flex_r	wrist_dev_r	arm_flex_l	arm_add_l	arm_rot_l	elbow_flex_l	pro_sup_l	wrist_flex_l	wrist_dev_l
1.04	0.508414	1.37975	1.19972	0.926604	0.918031	1.04503	0.236621	0.114875	-0.223963	0.291761	-0.13958	0	0	0.481827	-0.244686	-0.0356186	0.968843	-0.140397	0	0	-0.0407901	-0.0727524	0.261484	-0.315941	-0.382986	0.0218468	0.836955	1.4679	0	0	-0.197839	-0.200176	-0.50684	0.738335	1.24102	0	0
1.05	0.462408	1.37117	1.24498	0.926676	0.927371	1.0456	0.236945	0.109856	-0.224624	0.288246	-0.142055	0	0	0.494567	-0.210573	0.0226438	0.911695	-0.128995	0	0	-0.0297053	-0.0837446	0.265953	-0.315002	-0.385727	0.0151019	0.849255	1.46528	0	0	-0.19607	-0.20212	-0.502655	0.735885	1.2498	0	0
1.06	0.499246	1.38328	1.19466	0.927642	0.938729	1.04707	0.206325	0.117175	-0.225022	0.279726	-0.145052	0	0	0.497642	-0.253774	-0.0755256	0.893423	-0.149498	0	0	-0.0450407	-0.0853281	0.285076	-0.321499	-0.394933	0.00557561	0.876528	1.45913	0	0	-0.197205	-0.200427	-0.497523	0.743397	1.2596	0	0
1.07	0.491978	1.38437	1.19534	0.928008	0.94905	1.04785	0.19269	0.117332	-0.227031	0.27575	-0.145802	0	0	0.504432	-0.25705	-0.0952384	0.851335	-0.152434	0	0	-0.0450437	-0.0917565	0.294047	-0.321782	-0.401373	0.00177232	0.893295	1.45493	0	0	-0.198603	-0.201443	-0.491351	0.746057	1.26758	0	0
1.08	0.42672	1.37052	1.26306	0.927748	0.95775	1.04784	0.201288	0.10914	-0.226215	0.274973	-0.14608	0	0	0.511174	-0.204254	0.00850024	0.762606	-0.140372	0	0	-0.0278217	-0.105304	0.292383	-0.315878	-0.402473	-0.000666651	0.899379	1.45444	0	0	-0.196153	-0.204418	-0.487028	0.742175	1.27726	0	0
1.09	0.485543	1.38974	1.18589	0.928681	0.969874	1.04915	0.160962	0.117957	-0.226718	0.266236	-0.148034	0	0	0.508379	-0.268825	-0.154954	0.758856	-0.178756	0	0	-0.0498148	-0.103861	0.315996	-0.32438	-0.417888	-0.00257572	0.929817	1.43151	0	0	-0.199306	-0.205294	-0.468571	0.750805	1.27215	0	0
1.1	0.40014	1.36776	1.2774	0.928125	0.978036	1.04838	0.180781	0.108323	-0.225537	0.267858	-0.14768	0	0	0.511198	-0.197078	0.00653377	0.634744	-0.165317	0	0	-0.0234986	-0.118384	0.312371	-0.320037	-0.409527	-0.0208506	0.931479	1.4548	0	0	-0.189703	-0.200486	-0.487137	0.74116	1.30539	0	0
1.11	0.474034	1.39683	1.18004	0.92887	0.991142	1.05003	0.127494	0.116356	-0.226022	0.256859	-0.149252	0	0	0.498396	-0.286441	-0.251654	0.64895	-0.218921	0	0	-0.0541493	-0.116647	0.339864	-0.329095	-0.42284	-0.0289116	0.960584	1.45251	0	0	-0.192083	-0.192621	-0.487808	0.751436	1.30862	0	0
1.12	0.374274	1.36345	1.29069	0.928053	0.998641	1.04806	0.160857	0.107516	-0.221194	0.259151	-0.147667	0	0	0.502149	-0.191582	0.0008721	0.486055	-0.202967	0	0	-0.014583	-0.129751	0.330013	-0.322217	-0.418992	-0.0316901	0.958741	1.45462	0	0	-0.186766	-0.196511	-0.48545	0.741181	1.31282	0	0
1.13	0.416532	1.39011	1.22844	0.92804	1.01141	1.0493	0.11377	0.109046	-0.223651	0.25182	-0.146765	0	0	0.48911	-0.25984	-0.246036	0.488847	-0.249304	0	0	-0.0404746	-0.131269	0.353134	-0.328948	-0.43132	-0.0375167	0.982482	1.45358	0	0	-0.187667	-0.189822	-0.485888	0.74773	1.31642	0	0
1.14	0.363667	1.3599	1.28967	0.927363	1.01966	1.04671	0.138997	0.10831	-0.217852	0.251723	-0.143793	0	0	0.490318	-0.191293	-0.0176219	0.338364	-0.242929	0	0	-0.00576339	-0.136453	0.346304	-0.326456	-0.431053	-0.0393329	0.985801	1.45361	0	0	-0.185813	-0.193033	-0.48198	0.742112	1.31759	0	0
1.15	0.376424	1.37151	1.26558	0.926556	1.03134	1.04648	0.111288	0.107503	-0.2201	0.247255	-0.140614	0	0	0.485712	-0.22188	-0.155344	0.310395	-0.270213	0	0	-0.0161978	-0.138663	0.358108	-0.32985	-0.44058	-0.0435666	1.00326	1.45551	0	0	-0.18692	-0.186046	-0.486996	0.74671	1.32094	0	0
1.16	0.37006	1.36279	1.26873	0.925971	1.04144	1.04463	0.108372	0.109294	-0.216067	0.244868	-0.13642	0	0	0.483492	-0.210449	-0.114522	0.228795	-0.28568	0	0	-0.0059156	-0.140077	0.361749	-0.330856	-0.448192	-0.0429998	1.01589	1.4489	0	0	-0.189353	-0.186438	-0.479015	0.749034	1.31253	0	0
1.17	0.373825	1.35108	1.26212	0.925734	1.0515	1.04236	0.10787	0.115038	-0.210535	0.242492	-0.131265	0	0	0.484068	-0.198306	-0.0556971	0.15009	-0.297851	0	0	0.0067326	-0.139034	0.366135	-0.333163	-0.449209	-0.0531227	1.02678	1.4641	0	0	-0.188391	-0.180022	-0.492112	0.750336	1.32845	0	0
1.18	0.381629	1.3471	1.24866	0.924953	1.06223	1.04042	0.0984874	0.117678	-0.20948	0.241059	-0.126688	0	0	0.48566	-0.203442	-0.0718619	0.0993517	-0.306279	0	0	0.0122693	-0.137966	0.372305	-0.33532	-0.456142	-0.0554449	1.03842	1.46533	0	0	-0.189814	-0.176638	-0.492187	0.751507	1.32645	0	0
1.19	0.3915	1.34157	1.23449	0.92419	1.07294	1.03821	0.089929	0.121766	-0.206293	0.238232	-0.120924	0	0	0.488225	-0.204139	-0.0696913	0.0494888	-0.308331	0	0	0.0190806	-0.135935	0.377385	-0.337571	-0.462531	-0.0575846	1.0491	1.46594	0	0	-0.19089	-0.173705	-0.492053	0.752719	1.32511	0	0
1.2	0.399335	1.33656	1.22229	0.923216	1.08374	1.03583	0.0814522	0.125019	-0.204753	0.237025	-0.114591	0	0	0.49206	-0.206337	-0.0724097	0.00741408	-0.304518	0	0	0.0256685	-0.133892	0.382392	-0.34016	-0.46939	-0.0591799	1.05925	1.46601	0	0	-0.192243	-0.170846	-0.491088	0.754389	1.3275	0	0
1.21	0.406313	1.33082	1.21097	0.922188	1.09457	1.03329	0.0749243	0.12762	-0.205705	0.238902	-0.106368	0	0	0.501191	-0.209055	-0.0797581	0	-0.290739	0	0	0.0329326	-0.131362	0.387521	-0.343329	-0.477305	-0.0590755	1.06924	1.46565	0	0	-0.193729	-0.169966	-0.486594	0.755138	1.33594	0	0
1.22	0.411246	1.32593	1.20233	0.921127	1.10547	1.03083	0.067619	0.12924	-0.206838	0.240094	-0.102779	0	0	0.510256	-0.21037	-0.0835899	0	-0.282429	0	0	0.0384645	-0.130415	0.389901	-0.343368	-0.483806	-0.0582208	1.07674	1.46571	0	0	-0.196511	-0.170405	-0.482224	0.757067	1.34097	0	0
1.23	0.413598	1.32144	1.1959	0.920066	1.11647	1.02842	0.0607157	0.129897	-0.207183	0.242483	-0.0997665	0	0	0.519023	-0.211097	-0.0837954	0	-0.274357	0	0	0.0438395	-0.130402	0.39249	-0.342762	-0.48975	-0.0566684	1.08281	1.46429	0	0	-0.199426	-0.171704	-0.477546	0.758442	1.34235	0	0
1.24	0.414346	1.31768	1.19084	0.919045	1.12757	1.02611	0.0541178	0.129708	-0.206681	0.246873	-0.0972397	0	0	0.527113	-0.211275	-0.080803	0	-0.26669	0	0	0.0486983	-0.131498	0.395643	-0.341712	-0.495311	-0.0538	1.08721	1.45965	0	0	-0.201957	-0.173431	-0.472337	0.75971	1.33662	0	0
1.25	0.414246	1.31491	1.18643	0.918033	1.13877	1.02397	0.0474596	0.128562	-0.206078	0.253203	-0.0948876	0	0	0.53419	-0.210678	-0.0752413	0	-0.258155	0	0	0.0522617	-0.133653	0.400118	-0.34173	-0.49648	-0.0575883	1.08986	1.46726	0	0	-0.201076	-0.170804	-0.479745	0.75916	1.34125	0	0
1.26	0.412627	1.31256	1.18316	0.91708	1.15005	1.02196	0.041208	0.127013	-0.206658	0.259971	-0.0924552	0	0	0.541015	-0.209391	-0.0675505	0	-0.24879	0	0	0.0555907	-0.136665	0.405195	-0.341632	-0.497517	-0.0600262	1.09134	1.47215	0	0	-0.199684	-0.1688	-0.485589	0.757705	1.34024	0	0
1.27	0.409824	1.31075	1.18086	0.916145	1.1614	1.02015	0.0354011	0.125014	-0.205895	0.268161	-0.0904016	0	0	0.547251	-0.20738	-0.0572109	0	-0.240934	0	0	0.0582724	-0.140288	0.4104	-0.341552	-0.498535	-0.0616023	1.09212	1.47536	0	0	-0.198378	-0.168693	-0.487879	0.755323	1.33897	0	0
1.28	0.406167	1.3095	1.17929	0.915203	1.17286	1.01857	0.0299434	0.122459	-0.203075	0.277964	-0.0892343	0	0	0.552544	-0.204714	-0.04478	0	-0.235413	0	0	0.0600974	-0.144303	0.415436	-0.341619	-0.499163	-0.062909	1.09249	1.47687	0	0	-0.197618	-0.170764	-0.486458	0.752278	1.34138	0	0
1.29	0.401679	1.30857	1.17823	0.914205	1.18452	1.01718	0.0250294	0.119339	-0.199125	0.289326	-0.0888206	0	0	0.55657	-0.201493	-0.0307994	0	-0.231134	0	0	0.0616853	-0.148634	0.421383	-0.342887	-0.498725	-0.0651353	1.0922	1.47693	0	0	-0.196378	-0.173021	-0.484239	0.74854	1.34557	0	0
1.3	0.397485	1.30817	1.17634	0.91318	1.19647	1.01598	0.0201255	0.115737	-0.194696	0.301932	-0.0894713	0	0	0.558369	-0.198035	-0.0160833	0	-0.228815	0	0	0.0633355	-0.153339	0.428995	-0.345563	-0.496808	-0.0683263	1.09061	1.47543	0	0	-0.194648	-0.174686	-0.482986	0.744536	1.34886	0	0
1.31	0.39294	1.30813	1.17363	0.912199	1.20867	1.01493	0.0164705	0.111332	-0.190629	0.318923	-0.0929989	0	0	0.557068	-0.194494	0.00054642	0	-0.235642	0	0	0.0615442	-0.160027	0.436664	-0.348078	-0.49643	-0.068429	1.09106	1.45584	0	0	-0.196524	-0.18464	-0.459744	0.743243	1.33026	0	0
1.32	0.389657	1.30791	1.16778	0.91138	1.22118	1.01405	0.0131432	0.107203	-0.183889	0.3355	-0.1007	0	0	0.55373	-0.192236	0.0127737	0	-0.262379	0	0	0.0626521	-0.166557	0.441673	-0.34534	-0.491444	-0.0677915	1.08479	1.45907	0	0	-0.196432	-0.175536	-0.49465	0.742865	1.35983	0	0
1.33	0.384818	1.30654	1.16197	0.910769	1.2339	1.01327	0.0127479	0.102761	-0.174931	0.355527	-0.111291	0	0	0.55128	-0.190956	0.0192119	0.00455602	-0.292024	0	0	0.0659185	-0.172498	0.447858	-0.343076	-0.48757	-0.0630886	1.07803	1.4539	0	0	-0.200615	-0.176873	-0.501391	0.741534	1.35872	0	0
1.34	0.378627	1.30403	1.15748	0.910226	1.24665	1.01272	0.0155635	0.0980651	-0.165157	0.378985	-0.124775	0	0	0.551742	-0.19021	0.0206388	0.0197269	-0.314141	0	0	0.0708575	-0.17842	0.453888	-0.340318	-0.48196	-0.0581044	1.06907	1.45057	0	0	-0.204457	-0.178952	-0.508459	0.738476	1.35761	0	0
1.35	0.370042	1.30066	1.15677	0.909601	1.2593	1.0125	0.0214406	0.0926056	-0.156063	0.405526	-0.14149	0	0	0.554006	-0.189166	0.0238295	0.0369971	-0.325611	0	0	0.076875	-0.185134	0.458595	-0.336583	-0.47468	-0.052388	1.05739	1.44806	0	0	-0.20716	-0.182244	-0.51448	0.733128	1.35624	0	0
1.36	0.359517	1.29782	1.16068	0.908746	1.2718	1.01279	0.0289363	0.0853467	-0.14929	0.43519	-0.160091	0	0	0.556655	-0.186879	0.0306312	0.0571047	-0.329185	0	0	0.0817178	-0.193384	0.460706	-0.331801	-0.466038	-0.0462135	1.04362	1.44575	0	0	-0.20878	-0.187153	-0.51754	0.72656	1.35498	0	0
1.37	0.345464	1.29571	1.17107	0.907682	1.28422	1.01356	0.037765	0.0754098	-0.145173	0.467622	-0.184124	0	0	0.55988	-0.182441	0.0392842	0.0803593	-0.32924	0	0	0.0852705	-0.203713	0.460063	-0.326359	-0.455783	-0.0399235	1.02806	1.44263	0	0	-0.209103	-0.192666	-0.520495	0.719405	1.35406	0	0
1.38	0.329811	1.29509	1.18586	0.906428	1.29666	1.01479	0.0462939	0.0630564	-0.143794	0.500981	-0.211884	0	0	0.562616	-0.175621	0.0483808	0.10599	-0.329874	0	0	0.0863014	-0.215916	0.457358	-0.32117	-0.444384	-0.0340458	1.01198	1.43883	0	0	-0.208036	-0.198833	-0.52217	0.712152	1.35092	0	0
1.39	0.31662	1.29577	1.20095	0.904991	1.30904	1.01631	0.053779	0.0499749	-0.144736	0.533553	-0.23877	0	0	0.564251	-0.167378	0.0593128	0.132094	-0.33151	0	0	0.084137	-0.228464	0.452719	-0.317282	-0.433101	-0.0285642	0.997179	1.43314	0	0	-0.206297	-0.206003	-0.520065	0.705674	1.34303	0	0
1.4	0.308128	1.29584	1.21336	0.903378	1.32129	1.0178	0.0620323	0.037955	-0.148166	0.56417	-0.282574	0	0	0.565729	-0.15934	0.0727206	0.156902	-0.32499	0	0	0.0821809	-0.240224	0.446134	-0.31361	-0.418605	-0.0276929	0.980439	1.44377	0	0	-0.199043	-0.198097	-0.565127	0.701122	1.38209	0	0
1.41	0.301693	1.29438	1.22366	0.901763	1.33333	1.01894	0.0731983	0.0269969	-0.152443	0.595482	-0.319998	0	0	0.567648	-0.152141	0.0852089	0.179994	-0.310657	0	0	0.0809566	-0.250096	0.44042	-0.312565	-0.407985	-0.0226689	0.967405	1.44717	0	0	-0.196995	-0.201382	-0.573346	0.698308	1.38301	0	0
1.42	0.298502	1.29192	1.22931	0.900269	1.34516	1.01981	0.0869461	0.0175182	-0.156295	0.627425	-0.357877	0	0	0.569234	-0.14702	0.0920381	0.201619	-0.291793	0	0	0.0808119	-0.258079	0.436821	-0.312798	-0.398896	-0.0162219	0.955467	1.45271	0	0	-0.195101	-0.204258	-0.580807	0.696631	1.38282	0	0
1.43	0.301379	1.28989	1.22733	0.89912	1.35671	1.02064	0.101626	0.0105514	-0.159118	0.659873	-0.396319	0	0	0.568574	-0.144692	0.0926529	0.221386	-0.272994	0	0	0.0794605	-0.26411	0.435352	-0.313561	-0.39176	-0.00782337	0.945212	1.46019	0	0	-0.193002	-0.206992	-0.586364	0.696584	1.38217	0	0
1.44	0.311441	1.28951	1.21623	0.898413	1.36802	1.02162	0.115389	0.00640703	-0.159553	0.692173	-0.434372	0	0	0.564814	-0.146511	0.0831906	0.240626	-0.256313	0	0	0.0752608	-0.268266	0.436459	-0.314812	-0.386672	0.00225996	0.93728	1.46806	0	0	-0.190281	-0.209704	-0.588998	0.697958	1.38079	0	0
